<?xml version="1.0" ?><svg id="Layer_1" style="enable-background:new 0 0 156 128;" version="1.1" viewBox="0 0 156 128" xml:space="preserve" xmlns="http://www.w3.org/2000/svg" xmlns:xlink="http://www.w3.org/1999/xlink"><style type="text/css">
	.st0{clip-path:url(#SVGID_2_);fill:#D9D9D9;stroke:#CBCBCB;stroke-width:2;stroke-miterlimit:10;}
	.st1{clip-path:url(#SVGID_4_);fill:#FFFFFF;}
	.st2{clip-path:url(#SVGID_6_);fill:none;stroke:#D0021B;stroke-width:2;stroke-miterlimit:10;}
	.st3{clip-path:url(#SVGID_8_);}
	.st4{clip-path:url(#SVGID_10_);fill:#979797;}
	.st5{clip-path:url(#SVGID_12_);fill:#979797;}
	.st6{clip-path:url(#SVGID_14_);fill:#979797;}
</style><g><defs><path d="M14,26c0-1.1,0.9-2,2-2h124c1.1,0,2,0.9,2,2v76c0,1.1-0.9,2-2,2H16c-1.1,0-2-0.9-2-2V26z" id="SVGID_1_"/></defs><use style="overflow:visible;fill-rule:evenodd;clip-rule:evenodd;fill:#D9D9D9;" xlink:href="#SVGID_1_"/><clipPath id="SVGID_2_"><use style="overflow:visible;" xlink:href="#SVGID_1_"/></clipPath><path class="st0" d="M14,26c0-1.1,0.9-2,2-2h124c1.1,0,2,0.9,2,2v76c0,1.1-0.9,2-2,2H16c-1.1,0-2-0.9-2-2V26z"/></g><g><defs><rect height="29.3" id="SVGID_3_" width="61.3" x="71.3" y="34.7"/></defs><clipPath id="SVGID_4_"><use style="overflow:visible;" xlink:href="#SVGID_3_"/></clipPath><rect class="st1" height="29.3" width="61.3" x="71.3" y="34.7"/></g><g><defs><rect height="29.3" id="SVGID_5_" width="61.3" x="71.3" y="34.7"/></defs><clipPath id="SVGID_6_"><use style="overflow:visible;" xlink:href="#SVGID_5_"/></clipPath><rect class="st2" height="29.3" width="61.3" x="71.3" y="34.7"/></g><g><defs><path d="M118.6,48.1c1,0,1.6-0.7,1.6-1.7c0-1-0.7-1.7-1.6-1.7c-1,0-1.7,0.7-1.7,1.7    C116.9,47.4,117.6,48.1,118.6,48.1z M118.6,53.9c1,0,1.8-0.8,1.8-1.8c0-1-0.8-1.8-1.8-1.8c-1,0-1.8,0.8-1.8,1.8    C116.7,53.1,117.5,53.9,118.6,53.9z M118.6,56.1c-2.4,0-4.3-1.4-4.3-4c0-1.6,0.9-2.5,1.7-3c-0.7-0.5-1.5-1.3-1.5-2.8    c0-2.3,1.9-3.8,4.1-3.8c2.2,0,4.1,1.5,4.1,3.8c0,1.4-0.8,2.3-1.5,2.8c0.7,0.5,1.7,1.4,1.7,3C122.8,54.7,120.9,56.1,118.6,56.1z     M107.7,48.7c1,0,1.7-0.7,1.7-1.9c0-1.2-0.7-1.9-1.7-1.9c-1,0-1.7,0.7-1.7,1.9C105.9,47.9,106.6,48.7,107.7,48.7z M105.2,56    l2.8-5.5c-0.3,0.1-0.7,0.2-1,0.2c-1.8,0-3.5-1.5-3.5-3.9c0-2.6,1.8-4.1,4.1-4.1c2.3,0,4.1,1.5,4.1,4.1c0,1-0.2,1.8-1,3.4l-2.9,5.9    H105.2z M96.7,48.1c1,0,1.6-0.7,1.6-1.7c0-1-0.7-1.7-1.6-1.7S95,45.5,95,46.5C95,47.4,95.7,48.1,96.7,48.1z M96.7,53.9    c1,0,1.8-0.8,1.8-1.8c0-1-0.8-1.8-1.8-1.8c-1,0-1.8,0.8-1.8,1.8C94.9,53.1,95.7,53.9,96.7,53.9z M96.7,56.1c-2.4,0-4.3-1.4-4.3-4    c0-1.6,0.9-2.5,1.7-3c-0.7-0.5-1.5-1.3-1.5-2.8c0-2.3,1.9-3.8,4.1-3.8c2.2,0,4.1,1.5,4.1,3.8c0,1.4-0.8,2.3-1.5,2.8    c0.7,0.5,1.7,1.4,1.7,3C100.9,54.7,99,56.1,96.7,56.1z M85.8,48.7c1,0,1.7-0.7,1.7-1.9c0-1.2-0.7-1.9-1.7-1.9    c-1,0-1.7,0.7-1.7,1.9C84.1,47.9,84.8,48.7,85.8,48.7z M83.4,56l2.8-5.5c-0.3,0.1-0.7,0.2-1,0.2c-1.8,0-3.5-1.5-3.5-3.9    c0-2.6,1.8-4.1,4.1-4.1c2.3,0,4.1,1.5,4.1,4.1c0,1-0.2,1.8-1,3.4L86,56H83.4z" id="SVGID_7_"/></defs><clipPath id="SVGID_8_"><use style="overflow:visible;" xlink:href="#SVGID_7_"/></clipPath><rect class="st3" height="23.5" width="51.2" x="76.6" y="37.6"/></g><g><defs><path d="M23.3,75.3c0-1.1,0.9-2,2-2h105.4c1.1,0,2,0.9,2,2v1.3c0,1.1-0.9,2-2,2H25.3c-1.1,0-2-0.9-2-2V75.3z" id="SVGID_9_"/></defs><clipPath id="SVGID_10_"><use style="overflow:visible;" xlink:href="#SVGID_9_"/></clipPath><rect class="st4" height="15.3" width="119.3" x="18.3" y="68.3"/></g><g><defs><path d="M23.3,88.7c0-1.1,0.9-2,2-2h33.3c1.1,0,2,0.9,2,2V90c0,1.1-0.9,2-2,2H25.3c-1.1,0-2-0.9-2-2V88.7z" id="SVGID_11_"/></defs><clipPath id="SVGID_12_"><use style="overflow:visible;" xlink:href="#SVGID_11_"/></clipPath><rect class="st5" height="15.3" width="47.3" x="18.3" y="81.7"/></g><g><defs><path d="M95.3,88.7c0-1.1,0.9-2,2-2h33.3c1.1,0,2,0.9,2,2V90c0,1.1-0.9,2-2,2H97.3c-1.1,0-2-0.9-2-2V88.7z" id="SVGID_13_"/></defs><clipPath id="SVGID_14_"><use style="overflow:visible;" xlink:href="#SVGID_13_"/></clipPath><rect class="st6" height="15.3" width="47.3" x="90.3" y="81.7"/></g></svg>