<svg viewBox="0 0 300 300" xml:space="preserve" xmlns="http://www.w3.org/2000/svg" enable-background="new 0 0 300 300"><path d="M68 110.36V49.768c0-4.412 2.059-5.034 4.583-1.42l29.071 41.642M236 112.473V49.768c0-4.412-2.059-5.034-4.583-1.42L202.375 89.95" fill-rule="evenodd" clip-rule="evenodd" fill="none" stroke="#cccccc" stroke-width="8" stroke-linecap="round" stroke-linejoin="round" stroke-miterlimit="10" class="stroke-000000"></path><ellipse cx="152" cy="172" rx="112" ry="90" fill-rule="evenodd" clip-rule="evenodd" fill="none" stroke="#cccccc" stroke-width="8" stroke-linecap="round" stroke-linejoin="round" stroke-miterlimit="10" class="stroke-000000"></ellipse><path d="M151.762 215.055c-2.078 3.922-5.444 3.93-7.525 0l-7.385-13.951c-2.078-3.922-.225-7.104 4.151-7.104h13.995c4.37 0 6.232 3.174 4.151 7.104l-7.387 13.951z" fill-rule="evenodd" clip-rule="evenodd" fill="none" stroke="#cccccc" stroke-width="8" stroke-linecap="round" stroke-linejoin="round" stroke-miterlimit="10" class="stroke-000000"></path><circle cx="108" cy="158" r="16" fill-rule="evenodd" clip-rule="evenodd" fill="none" stroke="#cccccc" stroke-width="8" stroke-linecap="round" stroke-linejoin="round" stroke-miterlimit="10" class="stroke-000000"></circle><circle cx="104" cy="162" r="8" fill-rule="evenodd" clip-rule="evenodd" fill="#cccccc" class="fill-000000"></circle><circle cx="196" cy="158" r="16" fill-rule="evenodd" clip-rule="evenodd" fill="none" stroke="#cccccc" stroke-width="8" stroke-linecap="round" stroke-linejoin="round" stroke-miterlimit="10" class="stroke-000000"></circle><circle cx="192" cy="162" r="8" fill-rule="evenodd" clip-rule="evenodd" fill="#cccccc" class="fill-000000"></circle><path d="M148 218s-13 12-26 12-26-12-26-12M200 218s-13 12-26 12-26-12-26-12M36 186l76 20M36 166l76 28M196 194l76-20M196 206l76-12" fill="none" stroke="#cccccc" stroke-width="8" stroke-linecap="round" stroke-linejoin="round" stroke-miterlimit="10" class="stroke-000000"></path></svg>