<svg xmlns="http://www.w3.org/2000/svg" xml:space="preserve" id="Layer_1" style="enable-background:new 0 0 30 30" version="1.1" viewBox="0 0 30 30"><style>.st0{fill:#77c4d3}</style><path d="M12.875 7.103s1.708-1.938 10.5.688l2.125.541s-7.625 3.625-10.5 3.333c0 0-4.916-1.167-2.125-4.562z" class="st0"/><path d="m3.781 5.561 2.844-3.062s1.969-1.875 4.156.781l2.156 2.094 1.344.594v.344l-1.875 1.156-.688 1.938 1.875 1.844 2.5.417 2.594-.76 1.625-.281 1.438 1.469 6.094 1.438 1.313.469s-4.625.469-5.25.281l-1.094-.156 3.969 2.781 1.563 1.438-.313 2.563-2.844-2.031-1.969-1.906-1.25-1.281-6-1.563-.813.872-1 .842-.875-.281.313-.813.125-.469-1.438-.375-2.219-1.281-.969-1.406-1.062-1.531S6.562 6.842 6.156 5.905L3.5 5.811l.281-.25z" class="st0"/><path d="M21.656 20.248s1.75 2.375-6.656 7.406c0 0-3.062-5.531 5.688-7.75l.968.344zM7.6 19.964s-2.662-1.271-6.02 7.933c0 0 6.009 1.965 6.54-7.046l-.52-.887zm-.558-3.716s1.667-2.167-4.291-7.201c0 0-1.925 3.55 3.583 7.493l.708-.292z" style="fill:#b5e06c"/><path d="m4.021 5.311 1.458-.979.459 1.5-2.021-.063z" style="fill:#df4d60"/><circle cx="7.891" cy="3.923" r=".496"/><path d="m29.662 24.858-7.003-6.539c-.07-.065-.149-.088-.263-.101l-6.335.118c.003-.029.009-.057.005-.087l-.218-1.569a.373.373 0 0 0-.445-.317l-.673.136a4.754 4.754 0 0 1-1.157.153l1.717-1.032a.37.37 0 0 0 .103-.09l.771-.986 6.02 1.626c.522.676 3.412 4.329 5.592 5.401a.385.385 0 0 0 .196.056l.028-.001c.358-.028.358-.028.846-3.046a.377.377 0 0 0-.137-.354l-4.453-3.529c1.668.295 4.193.52 5.392-.489a.377.377 0 0 0-.168-.655c-.02-.004-1.961-.39-7.504-1.65a28.31 28.31 0 0 0-1.226-1.25 105.792 105.792 0 0 0 4.998-2.029.376.376 0 0 0 .223-.379.377.377 0 0 0-.291-.33c-.322-.072-7.906-1.766-9.887-1.958a4.966 4.966 0 0 0-.945.004 18.176 18.176 0 0 0-2.464-1.27c-.346-.614-1.944-3.236-4.071-3.289-1.283-.02-2.464.86-3.513 2.647-.103.167-.894.918-1.567 1.518a.374.374 0 0 0 .219.653l2.451.202c.446 1.308 2.719 7.258 7.497 8.21-.335.735-1.217 2.204-2.928 2.095-.174-.026-.339.104-.386.275l-.397 1.453-.318.006a.281.281 0 0 0-.058.001l-1.729.032c-.115-.328-.353-1.014-.594-1.741.85-.639.813-2.33-.131-3.97-.896-1.558-4.215-4.127-4.356-4.236a.378.378 0 0 0-.416-.027.377.377 0 0 0-.185.374c.023.176.573 4.338 1.469 5.896.789 1.372 1.931 2.226 2.857 2.226.019 0 .037-.006.056-.007.194.583.383 1.134.511 1.501l-1.358.025-4.549-5.75a.376.376 0 0 0-.588.466l4.195 5.302-.876.016-.006.001c-.028.001-.056.011-.084.019-.022.006-.044.009-.064.018l-.009.003-3.032 1.548a.375.375 0 0 0 .34.668l2.955-1.508 4.7-.088-.38.384a2.445 2.445 0 0 0-1.585-.085c-1.033.292-1.93 1.225-2.668 2.771a47.49 47.49 0 0 0-.5 1.104c-.525 1.181-1.754 3.947-2.222 4.136a.376.376 0 0 0-.117.718c.052.022.807.339 1.831.339.703 0 1.533-.149 2.35-.645 1.904-1.154 3.027-3.752 3.345-7.711l1.02-1.032 12.028-.224-.243.315c-.028.001-.055-.007-.083 0-3.912 1.078-6.289 2.699-7.063 4.817-.806 2.205.455 4.082.509 4.16a.394.394 0 0 0 .319.174.364.364 0 0 0 .121-.022.36.36 0 0 0 .242-.381c.095-.519 2.569-2.258 3.625-3 .393-.276.739-.521.991-.708 1.375-1.022 2.116-2.084 2.203-3.153a2.427 2.427 0 0 0-.3-1.388c.236-.308.432-.56.547-.708l6.763 6.315a.375.375 0 0 0 .53-.018.376.376 0 0 0-.02-.53zM6.723 15.934c-.16-.504-.298-.964-.365-1.256-.097-.416-.286-.597-.548-.848a7.828 7.828 0 0 1-.798-.873.375.375 0 0 0-.587.467c.39.49.665.754.866.947.24.23.292.285.336.477.076.329.231.844.408 1.4-.581-.113-1.392-.749-2.014-1.831C3.443 13.41 3 11.056 2.786 9.736c1.033.848 2.844 2.415 3.422 3.422.671 1.165.78 2.254.515 2.776zM4.747 27.306c-1.062.647-2.181.582-2.859.445.532-.668 1.167-1.979 2.083-4.044.191-.429.359-.808.492-1.086.628-1.315 1.381-2.135 2.18-2.367.312-.092.583-.08.797-.039a92.44 92.44 0 0 1-2.023 1.987c-.356.33-.425.607-.531 1.028-.088.355-.223.892-.655 1.875-.503 1.154-.839 1.411-1.032 1.424a.374.374 0 0 0 .023.749l.024-.001c.88-.055 1.416-1.282 1.703-1.941.427-.97.57-1.544.666-1.923.092-.371.12-.482.313-.66a78.38 78.38 0 0 0 1.704-1.667c-.383 3.182-1.346 5.282-2.885 6.22zm7.111-8.891-1.387.026.262-.959c.504-.012.95-.138 1.345-.331l-.221 1.245c-.001.006.001.013.001.019zM15.29 6.683c.141 0 .285.007.43.021 1.485.145 6.409 1.201 8.658 1.693-2.784 1.174-7.758 3.114-9.115 2.996-1.771-.173-3.111-1.365-2.985-2.657.115-1.187 1.426-2.053 3.012-2.053zM5.273 4.651l.36.996-1.26-.104c.327-.304.683-.647.9-.892zM6.55 5.987l-.001-.01-.738-2.042c-.006-.016-.018-.028-.026-.043.799-1.169 1.632-1.729 2.506-1.74 1.918.046 3.479 2.98 3.494 3.01a.371.371 0 0 0 .192.174c.565.227 1.16.529 1.766.864-1.217.425-2.102 1.33-2.212 2.462-.166 1.704 1.476 3.264 3.659 3.476.058.006.12.009.187.009.941 0 2.743-.545 4.589-1.207 1.004.955 1.521 1.543 1.526 1.55.053.06.123.102.2.119a506.9 506.9 0 0 0 6.543 1.451c-1.642.392-4.306-.139-5.385-.439a.374.374 0 0 0-.334.655l5.554 4.401a88.245 88.245 0 0 1-.349 2.007c-2.162-1.327-4.989-5.03-5.02-5.07a.38.38 0 0 0-.201-.135l-6.382-1.724a.374.374 0 0 0-.393.131l-.881 1.127-1.205.724c.311-.459.527-.927.638-1.292a.375.375 0 0 0-.312-.481C8.949 13.337 6.656 6.32 6.55 5.987zm6.068 12.414.191-1.075c.427.088 1.138.148 2.089-.095l.264-.053.163 1.172-2.707.051zm6.872 5.338c-.248.185-.589.425-.976.696-1.845 1.297-3.007 2.172-3.56 2.823-.265-.641-.546-1.726-.116-2.892.633-1.718 2.555-3.084 5.687-4.077-.562.748-1.147 1.552-1.448 2.039-.138.224-.241.272-.587.435-.354.167-.89.418-1.823 1.069-.528.366-1.627 1.128-1.511 2.002a.375.375 0 1 0 .743-.1c-.025-.191.161-.569 1.262-1.332.816-.57 1.316-.805 1.647-.961.393-.185.652-.307.907-.72.319-.517.998-1.439 1.605-2.243a1.7 1.7 0 0 1 .07.663c-.072.83-.73 1.728-1.9 2.598z"/></svg>